<svg width="44" height="44" viewBox="0 0 44 44" fill="none" xmlns="http://www.w3.org/2000/svg">
<rect width="44" height="44" fill="white"/>
<path fill-rule="evenodd" clip-rule="evenodd" d="M17.5657 12.4343L22.6568 17.5255C22.9693 17.8379 22.9693 18.3444 22.6568 18.6569C22.3444 18.9693 21.8379 18.9693 21.5255 18.6569L17.8 14.9314L17.8 27C17.8 27.4418 17.4418 27.8 17 27.8C16.5582 27.8 16.2 27.4418 16.2 27L16.2 14.9314L12.4745 18.6569C12.1621 18.9693 11.6556 18.9693 11.3431 18.6569C11.0307 18.3444 11.0307 17.8379 11.3431 17.5255L16.4343 12.4343C16.7467 12.1219 17.2533 12.1219 17.5657 12.4343ZM27.5657 31.5657L32.6568 26.4745C32.9693 26.1621 32.9693 25.6556 32.6568 25.3432C32.3444 25.0307 31.8379 25.0307 31.5255 25.3432L27.8 29.0686L27.8 17C27.8 16.5582 27.4418 16.2 27 16.2C26.5582 16.2 26.2 16.5582 26.2 17L26.2 29.0686L22.4745 25.3432C22.1621 25.0307 21.6556 25.0307 21.3431 25.3432C21.0307 25.6556 21.0307 26.1621 21.3431 26.4745L26.4343 31.5657C26.7467 31.8781 27.2533 31.8781 27.5657 31.5657Z" fill="url(#paint0_linear_2_139)"/>
<defs>
<linearGradient id="paint0_linear_2_139" x1="39.1147" y1="-134.8" x2="1.65936" y2="-133.066" gradientUnits="userSpaceOnUse">
<stop stop-color="#B93FF0"/>
<stop offset="1" stop-color="#FD7B3B"/>
</linearGradient>
</defs>
</svg>
