<svg width="24" height="25" viewBox="0 0 24 25" fill="none" xmlns="http://www.w3.org/2000/svg">
<path d="M21.0441 16.2667C22.0431 16.738 22.4836 17.9426 21.8531 18.8496C20.696 20.514 19.1293 21.8677 17.2903 22.7709C14.8494 23.9698 12.0736 24.3041 9.41784 23.7189C6.76207 23.1337 4.38382 21.6638 2.67281 19.5501C0.961789 17.4363 0.0194827 14.8041 0.000298588 12.0847C-0.0188856 9.36524 0.88619 6.71996 2.56722 4.58228C4.24824 2.44459 6.60552 0.941289 9.25277 0.318703C11.9 -0.303883 14.6802 -0.00882536 17.1378 1.15553C18.9894 2.03273 20.575 3.36414 21.7555 5.01209C22.3987 5.91005 21.9752 7.12081 20.983 7.60614L15.7363 10.1724C14.9059 10.5786 13.8996 10.1496 13.0642 9.7538C12.5552 9.51263 11.9793 9.45152 11.431 9.58047C10.8826 9.70943 10.3944 10.0208 10.0462 10.4636C9.69801 10.9064 9.51055 11.4543 9.51452 12.0175C9.51849 12.5808 9.71367 13.126 10.0681 13.5638C10.4225 14.0017 10.9151 14.3061 11.4652 14.4273C12.0152 14.5485 12.5902 14.4793 13.0958 14.231C13.9255 13.8234 14.9257 13.3802 15.7618 13.7747L21.0441 16.2667Z" fill="#111111"/>
<path fill-rule="evenodd" clip-rule="evenodd" d="M17.5709 14.6282C17.2719 15.3721 16.824 16.0558 16.246 16.6338C15.1204 17.7594 13.5938 18.3917 12.002 18.3917C10.4102 18.3917 8.88353 17.7594 7.75794 16.6338C6.63235 15.5082 6 13.9816 6 12.3898V4.11138C6 3.49758 6.49758 3 7.11139 3C7.72519 3 8.22277 3.49758 8.22277 4.11139V12.3898C8.22277 13.3921 8.62094 14.3533 9.32967 15.0621C10.0384 15.7708 10.9997 16.169 12.002 16.169C13.0043 16.169 13.9655 15.7708 14.6743 15.0621C15.0655 14.6708 15.3622 14.2026 15.5494 13.693C15.6212 13.7147 15.692 13.7418 15.7618 13.7747L17.5709 14.6282ZM18.0039 9.06328V8.73608C18.0039 8.12228 17.5064 7.62469 16.8926 7.62469C16.2788 7.62469 15.7812 8.12228 15.7812 8.73608V10.1505L18.0039 9.06328Z" fill="url(#paint0_linear_2_125)"/>
<g opacity="0.4" filter="url(#filter0_f_2_125)">
<path fill-rule="evenodd" clip-rule="evenodd" d="M17.5709 16.8782C17.2719 17.6221 16.824 18.3058 16.246 18.8838C15.1204 20.0094 13.5938 20.6417 12.002 20.6417C10.4102 20.6417 8.88353 20.0094 7.75794 18.8838C6.63235 17.7582 6 16.2316 6 14.6398V6.36138C6 5.74758 6.49758 5.25 7.11139 5.25C7.72519 5.25 8.22277 5.74758 8.22277 6.36139V14.6398C8.22277 15.6421 8.62094 16.6033 9.32967 17.3121C10.0384 18.0208 10.9997 18.419 12.002 18.419C13.0043 18.419 13.9655 18.0208 14.6743 17.3121C15.0655 16.9208 15.3622 16.4526 15.5494 15.943C15.6212 15.9647 15.692 15.9918 15.7618 16.0247L17.5709 16.8782ZM18.0039 11.3133V10.9861C18.0039 10.3723 17.5064 9.87469 16.8926 9.87469C16.2788 9.87469 15.7812 10.3723 15.7812 10.9861V12.4005L18.0039 11.3133Z" fill="url(#paint1_linear_2_125)"/>
</g>
<defs>
<filter id="filter0_f_2_125" x="2" y="1.25" width="20.0039" height="23.3917" filterUnits="userSpaceOnUse" color-interpolation-filters="sRGB">
<feFlood flood-opacity="0" result="BackgroundImageFix"/>
<feBlend mode="normal" in="SourceGraphic" in2="BackgroundImageFix" result="shape"/>
<feGaussianBlur stdDeviation="2" result="effect1_foregroundBlur_2_125"/>
</filter>
<linearGradient id="paint0_linear_2_125" x1="17.625" y1="18.375" x2="6" y2="3" gradientUnits="userSpaceOnUse">
<stop stop-color="#B93FF0"/>
<stop offset="1" stop-color="#FD7B3B"/>
</linearGradient>
<linearGradient id="paint1_linear_2_125" x1="17.625" y1="20.625" x2="6" y2="5.25" gradientUnits="userSpaceOnUse">
<stop stop-color="#B93FF0"/>
<stop offset="1" stop-color="#FD7B3B"/>
</linearGradient>
</defs>
</svg>
